<?xml version="1.0" encoding="UTF-8"?>
<svg version="1.1" xmlns="http://www.w3.org/2000/svg" width="466" height="406">
<path d="M0 0 C153.78 0 307.56 0 466 0 C466 133.98 466 267.96 466 406 C312.22 406 158.44 406 0 406 C0 272.02 0 138.04 0 0 Z " fill="#FEFEFE" transform="translate(0,0)"/>
<path d="M0 0 C20.3987815 14.68712268 33.18299093 35.54171027 37.828125 60.2890625 C38.2592482 64.5889492 38.125 68.92855431 38.125 73.25 C9.085 73.25 -19.955 73.25 -49.875 73.25 C-49.875 102.95 -49.875 132.65 -49.875 163.25 C-75.74353204 161.5254312 -98.05658992 153.83753861 -116.28515625 134.72265625 C-129.9479303 118.76322378 -138.76376229 98.54502325 -139.625 77.5 C-139.66520264 76.52426025 -139.70540527 75.54852051 -139.74682617 74.54321289 C-139.96933695 67.53441531 -139.67850505 61.05995622 -137.875 54.25 C-137.62878906 53.24582031 -137.38257813 52.24164063 -137.12890625 51.20703125 C-133.48544682 37.91245261 -127.26705306 25.39081292 -117.875 15.25 C-117.43140137 14.76547363 -116.98780273 14.28094727 -116.53076172 13.78173828 C-109.9632795 6.67568246 -103.34508347 1.05514351 -94.875 -3.75 C-93.2353125 -4.801875 -93.2353125 -4.801875 -91.5625 -5.875 C-84.31249094 -9.92233515 -76.19782057 -12.99478884 -67.875 -12.75 C-65.52819703 -13.36757973 -63.19347874 -14.0333793 -60.875 -14.75 C-40.44759994 -19.48482783 -17.02556165 -11.01653989 0 0 Z " fill="#A2A5CC" transform="translate(321.875,95.75)"/>
<path d="M0 0 C1 1 1 1 1.11352539 3.68383789 C1.10828857 4.85164795 1.10305176 6.01945801 1.09765625 7.22265625 C1.09443359 8.48271484 1.09121094 9.74277344 1.08789062 11.04101562 C1.07953403 12.38151109 1.07106907 13.72200588 1.0625 15.0625 C1.0574866 16.40689942 1.05292342 17.7513006 1.04882812 19.09570312 C1.03699488 22.39717941 1.02050971 25.69856803 1 29 C-2.44776419 29.92559599 -5.61375702 30.16586342 -9.1875 30.3125 C-33.31243671 31.96420728 -56.97769616 41.96101189 -75 58 C-76.19689453 59.01707031 -76.19689453 59.01707031 -77.41796875 60.0546875 C-81.22960762 63.10286633 -81.22960762 63.10286633 -84 67 C-84.66 67 -85.32 67 -86 67 C-86.2475 67.56589844 -86.495 68.13179688 -86.75 68.71484375 C-88.20198106 71.36924663 -89.97681602 73.31170782 -92 75.5625 C-110.55934608 98.00705541 -117.20484812 126.52524107 -116 155 C-115.97341309 155.76038574 -115.94682617 156.52077148 -115.91943359 157.30419922 C-114.904022 180.67949473 -105.24938679 203.44845432 -90.78515625 221.609375 C-89 224 -89 224 -88 227 C-87.34 227 -86.68 227 -86 227 C-85.03678502 228.06380389 -84.13089825 229.1795922 -83.25 230.3125 C-68.76224958 247.2198541 -45.4619847 259.21649672 -24 264 C-23.14277344 264.19335938 -22.28554687 264.38671875 -21.40234375 264.5859375 C-13.64533754 266.1624719 -5.88760058 266.57400714 2 267 C2.02465746 271.1117256 2.04283959 275.22342278 2.05493164 279.33520508 C2.0599708 280.73495228 2.06680216 282.1346942 2.07543945 283.53442383 C2.0875232 285.54245777 2.09269807 287.55052957 2.09765625 289.55859375 C2.10289307 290.76829834 2.10812988 291.97800293 2.11352539 293.22436523 C2 296 2 296 1 297 C-5.71265325 297.48395518 -12.36460548 296.78267176 -19 295.8125 C-19.90355225 295.68085449 -20.80710449 295.54920898 -21.73803711 295.41357422 C-51.97085865 290.71921751 -78.85365706 276.96613031 -101 256 C-101.88429687 255.18015625 -102.76859375 254.3603125 -103.6796875 253.515625 C-132.33101177 226.0817791 -146.46435593 187.1955029 -147.34301758 148.04418945 C-147.48126425 134.07494379 -145.75475266 121.44084945 -142 108 C-141.80245117 107.27748047 -141.60490234 106.55496094 -141.40136719 105.81054688 C-136.48012659 88.28447067 -127.09046867 71.19288462 -115.66796875 57.078125 C-113.41991323 54.27726895 -111.3434298 51.35939586 -109.26171875 48.43359375 C-108.84535156 47.96050781 -108.42898437 47.48742187 -108 47 C-107.34 47 -106.68 47 -106 47 C-105.773125 46.42765625 -105.54625 45.8553125 -105.3125 45.265625 C-103.63564638 42.37105625 -101.6231523 40.82169415 -99 38.75 C-98.00742188 37.96238281 -97.01484375 37.17476562 -95.9921875 36.36328125 C-95.00476563 35.58339844 -94.01734375 34.80351563 -93 34 C-92.17757812 33.31292969 -91.35515625 32.62585937 -90.5078125 31.91796875 C-66.79759102 12.21127647 -31.04412094 -1.82612476 0 0 Z " fill="#8285BA" transform="translate(270,21)"/>
<path d="M0 0 C9.9 0 19.8 0 30 0 C30.8125 12.75 30.8125 12.75 31.04614258 16.69042969 C31.58135278 24.4325523 32.96267167 31.52769796 35 39 C35.47277571 41.33044996 35.9340102 43.66332675 36.375 46 C37.80176947 52.7622928 40.18240022 58.71523402 43 65 C43.75174798 66.89514089 44.50171655 68.79098849 45.25 70.6875 C59.2279115 103.99934516 83.95694057 132.53648099 115 151 C115.58088379 151.3491748 116.16176758 151.69834961 116.76025391 152.05810547 C142.06885338 167.17505851 170.34263607 175.53971337 199.7890625 176.60546875 C201.15804687 176.66154297 201.15804687 176.66154297 202.5546875 176.71875 C203.38468262 176.74904297 204.21467773 176.77933594 205.06982422 176.81054688 C207 177 207 177 208 178 C208.08775605 180.14558827 208.10695219 182.29404421 208.09765625 184.44140625 C208.09443359 185.74658203 208.09121094 187.05175781 208.08789062 188.39648438 C208.07953401 189.7851569 208.07106905 191.17382877 208.0625 192.5625 C208.05748666 193.95507656 208.05292347 195.34765481 208.04882812 196.74023438 C208.03699434 200.1601987 208.0205088 203.58007844 208 207 C175.18162663 208.37182911 144.37227828 200.47729955 115 186 C113.845 185.43667969 112.69 184.87335938 111.5 184.29296875 C98.19124526 177.455596 85.3237278 168.77775787 74 159 C73.23171875 158.34128906 72.4634375 157.68257812 71.671875 157.00390625 C69.06809292 154.7150978 66.52726199 152.37311693 64 150 C63.21085205 149.26185059 63.21085205 149.26185059 62.40576172 148.50878906 C40.74416978 128.0794621 25.47385103 103.33941745 14 76 C13.72188477 75.35595215 13.44376953 74.7119043 13.15722656 74.04833984 C9.51048265 65.58798981 7.38990234 56.96255419 5.4453125 47.99560547 C5.04683205 46.20987125 4.60439851 44.43407742 4.15625 42.66015625 C2.60700896 36.51741554 1.55258458 30.4090274 0.8125 24.125 C0.7285498 23.44252197 0.64459961 22.76004395 0.55810547 22.05688477 C-0.23717756 14.62880391 0 7.60034244 0 0 Z " fill="#444A9A" transform="translate(64,170)"/>
<path d="M0 0 C3.32668276 1.35146487 4.62647262 3.04578591 6.1875 6.25 C7 8.8125 7 8.8125 7 12.8125 C4.525 12.3175 4.525 12.3175 2 11.8125 C1.34 9.5025 0.68 7.1925 0 4.8125 C-0.66 4.8125 -1.32 4.8125 -2 4.8125 C-1.34 8.1125 -0.68 11.4125 0 14.8125 C-1.32 15.1425 -2.64 15.4725 -4 15.8125 C-4.99 12.8425 -5.98 9.8725 -7 6.8125 C-7.99 6.8125 -8.98 6.8125 -10 6.8125 C-9.01 10.1125 -8.02 13.4125 -7 16.8125 C-8.32 17.1425 -9.64 17.4725 -11 17.8125 C-12.62067849 14.54531547 -14.0694242 11.34553355 -15 7.8125 C-13.75 4.1875 -13.75 4.1875 -12 1.8125 C-11.67 2.4725 -11.34 3.1325 -11 3.8125 C-7.51753815 2.72906742 -3.37991713 -0.31686723 0 0 Z " fill="#EAEAEA" transform="translate(184,101.1875)"/>
<path d="M0 0 C1.875 1.0625 1.875 1.0625 3 3 C3.9375 6.4375 3.9375 6.4375 4 10 C2.4375 12.4375 2.4375 12.4375 0 14 C-3.63632575 14.60605429 -5.28314769 14.47161336 -8.375 12.4375 C-10.5996142 9.1005787 -10.50030235 6.93094707 -10 3 C-7.77766882 -1.05248626 -4.20052866 -0.45005664 0 0 Z " fill="#ECECEC" transform="translate(196,301)"/>
<path d="M0 0 C3.44097411 4.03085538 4.79058258 7.96076074 6 13 C1.94641576 15.70238949 -0.18310104 15.22937614 -5 15 C-5.66 14.67 -6.32 14.34 -7 14 C-7.625 11.4375 -7.625 11.4375 -8 9 C-6.35 7.68 -4.7 6.36 -3 5 C-4.65 5 -6.3 5 -8 5 C-8.33 4.01 -8.66 3.02 -9 2 C-5.89356481 0.15914951 -3.5980158 -0.71960316 0 0 Z " fill="#ECECEC" transform="translate(201,96)"/>
<path d="M0 0 C3.54573402 0.79779015 4.57950921 2.57506988 6.5 5.5625 C6.5 6.2225 6.5 6.8825 6.5 7.5625 C3.035 9.0475 3.035 9.0475 -0.5 10.5625 C2.965 10.0675 2.965 10.0675 6.5 9.5625 C6.5 10.8825 6.5 12.2025 6.5 13.5625 C5.06359829 13.75823608 3.62580496 13.94377816 2.1875 14.125 C1.38699219 14.22941406 0.58648437 14.33382813 -0.23828125 14.44140625 C-2.5 14.5625 -2.5 14.5625 -5.5 13.5625 C-7.04586876 10.47076248 -6.79359521 7.96820448 -6.5 4.5625 C-4.52929117 1.71592058 -3.37646044 0.7597036 0 0 Z " fill="#ECECEC" transform="translate(304.5,259.4375)"/>
<path d="M0 0 C3.37149637 2.27803809 4.12640763 4.74064681 5.3125 8.5625 C5.25 10.875 5.25 10.875 4.3125 12.5625 C1.16126885 14.89674529 -1.86137952 14.97838266 -5.6875 14.5625 C-7.6875 11.5625 -7.6875 11.5625 -7.625 9.5625 C-6.3070169 6.75080272 -4.39146986 5.94915121 -1.6875 4.5625 C-3.6675 4.8925 -5.6475 5.2225 -7.6875 5.5625 C-8.0175 4.2425 -8.3475 2.9225 -8.6875 1.5625 C-5.5344237 0.2426076 -3.41243222 -0.55551222 0 0 Z " fill="#ECECEC" transform="translate(338.6875,248.4375)"/>
<path d="M0 0 C2.81868992 2.20319435 3.55197571 4.1686539 4.25 7.625 C4.50523437 8.81996094 4.50523437 8.81996094 4.765625 10.0390625 C4.84296875 10.68617188 4.9203125 11.33328125 5 12 C4 13 4 13 1.05859375 13.09765625 C-0.73384766 13.08025391 -0.73384766 13.08025391 -2.5625 13.0625 C-4.35880859 13.04896484 -4.35880859 13.04896484 -6.19140625 13.03515625 C-7.11824219 13.02355469 -8.04507812 13.01195312 -9 13 C-7.328125 7.234375 -7.328125 7.234375 -4.375 5.125 C-3.59125 4.75375 -2.8075 4.3825 -2 4 C-3.98 4.33 -5.96 4.66 -8 5 C-8.33 4.01 -8.66 3.02 -9 2 C-5.88578592 0.1545398 -3.61678684 -0.46369062 0 0 Z " fill="#E8E8EA" transform="translate(266,275)"/>
<path d="M0 0 C0.66 0.66 1.32 1.32 2 2 C4.58354218 2.16687448 4.58354218 2.16687448 7 2 C7.33 3.32 7.66 4.64 8 6 C6.68 6.33 5.36 6.66 4 7 C4.66 8.65 5.32 10.3 6 12 C7.65 12 9.3 12 11 12 C11.33 13.32 11.66 14.64 12 16 C8.04 16.495 8.04 16.495 4 17 C0.02158136 11.96066973 -1.05407718 7.29785459 -2 1 C-1.34 0.67 -0.68 0.34 0 0 Z " fill="#EBEBEB" transform="translate(286,262)"/>
<path d="M0 0 C0 1.32 0 2.64 0 4 C-1.32 4 -2.64 4 -4 4 C-4 4.66 -4 5.32 -4 6 C-1.69 6.33 0.62 6.66 3 7 C3.6875 9.3125 3.6875 9.3125 4 12 C2.9375 13.75 2.9375 13.75 1 15 C-2.1875 15.6875 -2.1875 15.6875 -5 16 C-5 15.01 -5 14.02 -5 13 C-3.35 12.67 -1.7 12.34 0 12 C0 11.34 0 10.68 0 10 C-2.31 9.67 -4.62 9.34 -7 9 C-7.75 6.75 -7.75 6.75 -8 4 C-5.36213872 0.38515307 -4.60595393 0 0 0 Z " fill="#EBEBEB" transform="translate(280,269)"/>
<path d="M0 0 C3.70309784 2.80234431 4.11389508 6.33408712 5.3125 10.75 C1.0225 10.75 -3.2675 10.75 -7.6875 10.75 C-7.6875 10.09 -7.6875 9.43 -7.6875 8.75 C-5.72602126 7.36061923 -3.72583424 6.0239589 -1.6875 4.75 C-3.6675 5.08 -5.6475 5.41 -7.6875 5.75 C-8.0175 4.76 -8.3475 3.77 -8.6875 2.75 C-3.5875 -0.33372093 -3.5875 -0.33372093 0 0 Z " fill="#ECECEC" transform="translate(273.6875,69.25)"/>
<path d="M0 0 C-1.32 5.28 -2.64 10.56 -4 16 C-10 10 -10 10 -10.3125 6.625 C-10 3 -10 3 -8.375 1.0625 C-6 0 -6 0 0 0 Z " fill="#E9E9EA" transform="translate(131,122)"/>
<path d="M0 0 C0.66 0 1.32 0 2 0 C4.81532819 5.04140164 6.5188509 9.22621075 7 15 C8.32 15.33 9.64 15.66 11 16 C10.67 16.99 10.34 17.98 10 19 C7.6875 18.8125 7.6875 18.8125 5 18 C1.86747415 14.14458357 0.00727773 8.85403664 -1 4 C-0.578125 1.72265625 -0.578125 1.72265625 0 0 Z " fill="#EBEBEB" transform="translate(110,121)"/>
<path d="M0 0 C0.99 0.33 1.98 0.66 3 1 C4.16796875 3.3984375 4.16796875 3.3984375 5.1875 6.375 C5.53167969 7.35210937 5.87585938 8.32921875 6.23046875 9.3359375 C7 12 7 12 7 15 C8.32 15.33 9.64 15.66 11 16 C10.67 16.99 10.34 17.98 10 19 C7.6875 18.8125 7.6875 18.8125 5 18 C1.86747415 14.14458357 0.00727773 8.85403664 -1 4 C-0.578125 1.72265625 -0.578125 1.72265625 0 0 Z " fill="#EBEBEB" transform="translate(175,300)"/>
<path d="M0 0 C5.47932789 1.54545146 10.11429181 4.15543212 15 7 C13.84826645 9.46800047 12.95216435 11.04783565 11 13 C7.875 13.125 7.875 13.125 5 13 C5 12.01 5 11.02 5 10 C6.98 9.67 8.96 9.34 11 9 C11 8.01 11 7.02 11 6 C10.01 6.495 10.01 6.495 9 7 C6.0625 7.375 6.0625 7.375 3 7 C1.11400657 4.61107499 0 3.08148442 0 0 Z " fill="#E8E8E9" transform="translate(202,301)"/>
<path d="M0 0 C1.32 0 2.64 0 4 0 C4.26554687 0.78246094 4.53109375 1.56492188 4.8046875 2.37109375 C5.15789062 3.38300781 5.51109375 4.39492187 5.875 5.4375 C6.39707031 6.95150391 6.39707031 6.95150391 6.9296875 8.49609375 C7.74055093 11.13971751 7.74055093 11.13971751 10 12 C10 13.32 10 14.64 10 16 C7.6875 15.875 7.6875 15.875 5 15 C1.92204197 10.44006217 1.0056168 5.32385364 0 0 Z " fill="#EBEBEB" transform="translate(452,0)"/>
<path d="M0 0 C0 0.99 0 1.98 0 3 C-0.99 3.33 -1.98 3.66 -3 4 C-0.69 4.66 1.62 5.32 4 6 C2.9375 7.5 2.9375 7.5 1 9 C-2.5625 9.3125 -2.5625 9.3125 -6 9 C-6.66 8.34 -7.32 7.68 -8 7 C-7.75 3.9375 -7.75 3.9375 -7 1 C-4.53721199 -0.231394 -2.7204945 -0.07159196 0 0 Z " fill="#EBEBEB" transform="translate(215,91)"/>
<path d="M0 0 C0 0.99 0 1.98 0 3 C-0.99 3.66 -1.98 4.32 -3 5 C-2.67 5.7425 -2.34 6.485 -2 7.25 C-1 10 -1 10 -1 14 C-1.99 14.33 -2.98 14.66 -4 15 C-8.04313337 7.03520079 -8.04313337 7.03520079 -7.875 3 C-6.25513716 -0.70254364 -3.63036366 -0.09553589 0 0 Z " fill="#EAEAEA" transform="translate(321,255)"/>
<path d="M0 0 C0.66 1.32 1.32 2.64 2 4 C3.65 3.67 5.3 3.34 7 3 C6.625 4.9375 6.625 4.9375 6 7 C5.01 7.495 5.01 7.495 4 8 C4 8.99 4 9.98 4 11 C3.01 11.33 2.02 11.66 1 12 C-1.70582788 8.16674383 -2.32613618 5.67461851 -2 1 C-1.34 0.67 -0.68 0.34 0 0 Z " fill="#EAEAEB" transform="translate(221,83)"/>
<path d="M0 0 C1.125 1.9375 1.125 1.9375 2 4 C2.99 4.66 3.98 5.32 5 6 C-1.5508985 5.54240047 -7.6753842 4.7899856 -14 3 C-14 2.67 -14 2.34 -14 2 C-12.88625 1.690625 -11.7725 1.38125 -10.625 1.0625 C-3.31938633 -1.07880056 -3.31938633 -1.07880056 0 0 Z " fill="#E3E3E8" transform="translate(252,281)"/>
<path d="M0 0 C2 1 2 1 2.8515625 2.92578125 C3.10679687 3.71339844 3.36203125 4.50101562 3.625 5.3125 C3.88539063 6.09238281 4.14578125 6.87226562 4.4140625 7.67578125 C5 10 5 10 5 14 C3.1875 13.9375 3.1875 13.9375 1 13 C-1.19302649 8.92723652 -2.4217962 5.63975825 -2 1 C-1.34 0.67 -0.68 0.34 0 0 Z " fill="#EBEBEB" transform="translate(282,65)"/>
<path d="M0 0 C0.99 0.33 1.98 0.66 3 1 C3.94921875 2.9609375 3.94921875 2.9609375 4.6875 5.375 C4.93886719 6.16648437 5.19023437 6.95796875 5.44921875 7.7734375 C6 10 6 10 6 13 C5.01 13.33 4.02 13.66 3 14 C0.69559987 9.70543612 -0.78184562 5.68520915 -2 1 C-1.34 0.67 -0.68 0.34 0 0 Z " fill="#EBEBEB" transform="translate(4,369)"/>
<path d="M0 0 C2.87255066 2.42195448 3.70838919 4.59742703 4.6875 8.1875 C4.93886719 9.08855469 5.19023437 9.98960937 5.44921875 10.91796875 C5.63097656 11.60503906 5.81273437 12.29210937 6 13 C4.68 13.33 3.36 13.66 2 14 C-0.44697666 9.63799813 -1.50269348 5.97306516 -2 1 C-1.34 0.67 -0.68 0.34 0 0 Z " fill="#EBEBEB" transform="translate(347,244)"/>
<path d="M0 0 C0.33 0.66 0.66 1.32 1 2 C-0.81178758 2.66860036 -2.62445016 3.33483012 -4.4375 4 C-5.44683594 4.37125 -6.45617187 4.7425 -7.49609375 5.125 C-10 6 -10 6 -11 6 C-11.125 3.625 -11.125 3.625 -11 1 C-7.30023628 -2.69976372 -4.53037127 -2.32640687 0 0 Z " fill="#E9E9EB" transform="translate(244,83)"/>
<path d="M0 0 C4.29 0 8.58 0 13 0 C12.67 0.99 12.34 1.98 12 3 C8.7 3.33 5.4 3.66 2 4 C1.34 2.68 0.68 1.36 0 0 Z " fill="#C2C3D5" transform="translate(266,80)"/>
<path d="M0 0 C0 0.99 0 1.98 0 3 C-0.99 3.66 -1.98 4.32 -3 5 C-2.34 5.66 -1.68 6.32 -1 7 C-3 8 -3 8 -5.5625 7.3125 C-8 6 -8 6 -8.8125 3.875 C-8.874375 3.25625 -8.93625 2.6375 -9 2 C-5.62902617 0.50178941 -3.79557881 0 0 0 Z " fill="#E7E8EA" transform="translate(256,76)"/>
<path d="M0 0 C2.0625 0.4375 2.0625 0.4375 4 1 C4 2.98 4 4.96 4 7 C2.68 7 1.36 7 0 7 C-0.38133299 5.0085944 -0.71325582 3.00720923 -1 1 C-0.67 0.67 -0.34 0.34 0 0 Z " fill="#FDFDFD" transform="translate(191,304)"/>
<path d="M0 0 C1.125 1.6875 1.125 1.6875 2 4 C1.375 6.6875 1.375 6.6875 0 9 C-2.125 9.8125 -2.125 9.8125 -4 10 C-2.8905928 6.51329166 -1.73662334 3.22515763 0 0 Z " fill="#E3E3E7" transform="translate(166,114)"/>
<path d="M0 0 C0.99 0 1.98 0 3 0 C2.74438677 2.3431213 2.40729228 4.67843403 2 7 C1.01 7.495 1.01 7.495 0 8 C-0.38063221 5.6739143 -0.71269945 3.33944736 -1 1 C-0.67 0.67 -0.34 0.34 0 0 Z " fill="#F9F9FA" transform="translate(126,125)"/>
<path d="M0 0 C0.66 0 1.32 0 2 0 C2 3.3 2 6.6 2 10 C-1 7 -1 7 -1.25 3.875 C-1 1 -1 1 0 0 Z " fill="#EBEBEB" transform="translate(464,0)"/>
<path d="M0 0 C0.33 0.66 0.66 1.32 1 2 C1.99 2.33 2.98 2.66 4 3 C3.67 3.99 3.34 4.98 3 6 C1.68 6 0.36 6 -1 6 C-1.33 5.01 -1.66 4.02 -2 3 C-1.34 2.01 -0.68 1.02 0 0 Z " fill="#B8BAD1" transform="translate(262,81)"/>
<path d="M0 0 C1.32 0.66 2.64 1.32 4 2 C3.67 2.99 3.34 3.98 3 5 C1.68 4.67 0.36 4.34 -1 4 C-0.67 2.68 -0.34 1.36 0 0 Z " fill="#EBEBEB" transform="translate(327,261)"/>
<path d="M0 0 C0.99 0 1.98 0 3 0 C3.33 1.32 3.66 2.64 4 4 C3.01 4.33 2.02 4.66 1 5 C0.34 3.68 -0.32 2.36 -1 1 C-0.67 0.67 -0.34 0.34 0 0 Z " fill="#EBEBEB" transform="translate(1,363)"/>
</svg>
